<mxfile host="app.diagrams.net" agent="Mozilla/5.0 (Windows NT 10.0; Win64; x64) AppleWebKit/537.36 (KHTML, like Gecko) Chrome/131.0.0.0 Safari/537.36" version="26.0.4">
  <diagram name="Halaman-1" id="xNXOWSK5obk3gPRHOKv-">
    <mxGraphModel dx="880" dy="1637" grid="1" gridSize="10" guides="1" tooltips="1" connect="1" arrows="1" fold="1" page="1" pageScale="1" pageWidth="827" pageHeight="1169" math="0" shadow="0">
      <root>
        <mxCell id="0" />
        <mxCell id="1" parent="0" />
        <mxCell id="WOmsKnr1_zjeLseIJWNy-7" value="" style="rounded=1;whiteSpace=wrap;html=1;" vertex="1" parent="1">
          <mxGeometry x="410" y="20" width="310" height="480" as="geometry" />
        </mxCell>
        <mxCell id="WOmsKnr1_zjeLseIJWNy-19" style="edgeStyle=none;shape=link;rounded=0;orthogonalLoop=1;jettySize=auto;html=1;exitX=0.5;exitY=1;exitDx=0;exitDy=0;entryX=0.5;entryY=0;entryDx=0;entryDy=0;" edge="1" parent="1" source="WOmsKnr1_zjeLseIJWNy-1" target="WOmsKnr1_zjeLseIJWNy-2">
          <mxGeometry relative="1" as="geometry" />
        </mxCell>
        <mxCell id="WOmsKnr1_zjeLseIJWNy-1" value="&lt;font size=&quot;3&quot;&gt;K.REN&lt;/font&gt;" style="whiteSpace=wrap;html=1;aspect=fixed;" vertex="1" parent="1">
          <mxGeometry x="560" y="40" width="80" height="80" as="geometry" />
        </mxCell>
        <mxCell id="WOmsKnr1_zjeLseIJWNy-20" style="edgeStyle=none;shape=link;rounded=0;orthogonalLoop=1;jettySize=auto;html=1;exitX=0.5;exitY=1;exitDx=0;exitDy=0;entryX=0.5;entryY=0;entryDx=0;entryDy=0;" edge="1" parent="1" source="WOmsKnr1_zjeLseIJWNy-2" target="WOmsKnr1_zjeLseIJWNy-3">
          <mxGeometry relative="1" as="geometry" />
        </mxCell>
        <mxCell id="WOmsKnr1_zjeLseIJWNy-2" value="&lt;font size=&quot;3&quot;&gt;K.PRIN&lt;/font&gt;" style="whiteSpace=wrap;html=1;aspect=fixed;" vertex="1" parent="1">
          <mxGeometry x="560" y="150" width="80" height="80" as="geometry" />
        </mxCell>
        <mxCell id="WOmsKnr1_zjeLseIJWNy-21" style="shape=link;rounded=0;orthogonalLoop=1;jettySize=auto;html=1;exitX=0.5;exitY=1;exitDx=0;exitDy=0;entryX=0.5;entryY=0;entryDx=0;entryDy=0;" edge="1" parent="1" source="WOmsKnr1_zjeLseIJWNy-3" target="WOmsKnr1_zjeLseIJWNy-6">
          <mxGeometry relative="1" as="geometry" />
        </mxCell>
        <mxCell id="WOmsKnr1_zjeLseIJWNy-3" value="&lt;font size=&quot;3&quot;&gt;K.OPS&lt;/font&gt;" style="whiteSpace=wrap;html=1;aspect=fixed;" vertex="1" parent="1">
          <mxGeometry x="560" y="250" width="80" height="80" as="geometry" />
        </mxCell>
        <mxCell id="WOmsKnr1_zjeLseIJWNy-6" value="&lt;font size=&quot;3&quot;&gt;K.IWIN&lt;/font&gt;" style="whiteSpace=wrap;html=1;aspect=fixed;" vertex="1" parent="1">
          <mxGeometry x="560" y="360" width="80" height="80" as="geometry" />
        </mxCell>
        <mxCell id="WOmsKnr1_zjeLseIJWNy-23" style="edgeStyle=orthogonalEdgeStyle;shape=link;rounded=0;orthogonalLoop=1;jettySize=auto;html=1;exitX=0;exitY=0.5;exitDx=0;exitDy=0;entryX=0.226;entryY=0.563;entryDx=0;entryDy=0;entryPerimeter=0;" edge="1" parent="1" source="WOmsKnr1_zjeLseIJWNy-1" target="WOmsKnr1_zjeLseIJWNy-7">
          <mxGeometry relative="1" as="geometry" />
        </mxCell>
        <mxCell id="WOmsKnr1_zjeLseIJWNy-24" style="edgeStyle=orthogonalEdgeStyle;shape=link;rounded=0;orthogonalLoop=1;jettySize=auto;html=1;exitX=0;exitY=0.5;exitDx=0;exitDy=0;entryX=0.226;entryY=0.563;entryDx=0;entryDy=0;entryPerimeter=0;" edge="1" parent="1" source="WOmsKnr1_zjeLseIJWNy-6" target="WOmsKnr1_zjeLseIJWNy-7">
          <mxGeometry relative="1" as="geometry" />
        </mxCell>
      </root>
    </mxGraphModel>
  </diagram>
</mxfile>
